<?xml version="1.0" encoding="UTF-8"?>
<svg version="1.1" xmlns="http://www.w3.org/2000/svg" width="256" height="256">
<path d="M0 0 C1.91497562 2.06576111 3.53696916 4.05048873 5.1875 6.3125 C6.16806848 7.61288668 7.14985349 8.91235687 8.1328125 10.2109375 C8.86032715 11.18111816 8.86032715 11.18111816 9.60253906 12.17089844 C11.50711703 14.66375275 13.53248633 17.04627393 15.5625 19.4375 C26.56824094 32.8867891 46 57.06608717 46 75 C50.3370696 73.74177839 54.66992361 72.46955981 59 71.1875 C59.66006042 70.99213654 60.32012085 70.79677307 61.00018311 70.5954895 C73.39269082 66.91151765 85.61087441 62.79270059 97.7890625 58.45581055 C98.44377533 58.2250885 99.09848816 57.99436646 99.77304077 57.75665283 C101.54528144 57.13172814 103.31497475 56.49959254 105.08447266 55.86694336 C108 55 108 55 112 55 C113.01783088 58.99568291 114.01443218 62.99623847 115 67 C115.35457275 68.43061768 115.35457275 68.43061768 115.71630859 69.89013672 C119.52828491 85.95152271 120.51302195 101.54965189 120.5625 118 C120.57098969 118.94237518 120.57947937 119.88475037 120.58822632 120.85568237 C120.78802074 152.02530855 112.26486172 181.82563398 92 206 C91.28199219 206.86882812 90.56398437 207.73765625 89.82421875 208.6328125 C63.19227956 239.5693813 20.49098241 252.85083551 -19 256 C-29.30709998 256.44176252 -39.62441894 256.28771267 -49.9375 256.1875 C-52.67511714 256.17065237 -55.41274863 256.15851777 -58.15039062 256.14648438 C-64.76710942 256.11388567 -71.38351475 256.06405909 -78 256 C-85.10062604 243.0810448 -92.09765437 230.12367409 -98.8125 217 C-99.51734594 215.62878687 -100.22242489 214.2576935 -100.92773438 212.88671875 C-102.63294049 209.5691087 -104.32846609 206.24668159 -106.01953125 202.92184448 C-106.99619272 201.00746276 -107.98114373 199.09750867 -108.96679688 197.18774414 C-112.10616241 191.06544342 -115.00815263 185.07441694 -116.875 178.4375 C-117.07351562 177.77943359 -117.27203125 177.12136719 -117.4765625 176.44335938 C-119.9236754 168.2008879 -120.25045285 160.46701255 -120.29516602 151.92041016 C-120.30658753 150.40794445 -120.32687994 148.89551583 -120.35668945 147.38330078 C-120.89817821 119.83695107 -108.93466365 95.44396679 -90.3828125 75.3828125 C-84.97699708 69.97699708 -78.8674014 65.4384315 -72.82421875 60.78125 C-60.15453286 51.00717894 -48.07231158 40.74722916 -36.21875 30 C-33.40765194 27.46605246 -30.55466615 24.98252983 -27.69140625 22.5078125 C-25.96919436 21.01648381 -25.96919436 21.01648381 -24.40234375 19.3046875 C-23 18 -23 18 -21 18 C-21 17.34 -21 16.68 -21 16 C-19.56640625 14.58984375 -19.56640625 14.58984375 -17.5625 12.9375 C-13.4310863 9.45918722 -9.75016202 5.67868174 -6.078125 1.72265625 C-4 0 -4 0 0 0 Z " fill="#A7E687" transform="translate(128,0)"/>
<path d="M0 0 C1.91497562 2.06576111 3.53696916 4.05048873 5.1875 6.3125 C6.16806848 7.61288668 7.14985349 8.91235687 8.1328125 10.2109375 C8.86032715 11.18111816 8.86032715 11.18111816 9.60253906 12.17089844 C11.50711703 14.66375275 13.53248633 17.04627393 15.5625 19.4375 C27.2455159 33.71443595 46.35824567 57.95360161 46 77 C41.60467757 78.10620683 37.20864811 79.20957945 32.8125 80.3125 C31.58595703 80.62123047 30.35941406 80.92996094 29.09570312 81.24804688 C23.0999858 82.75093116 17.10301411 84.21121926 11.0703125 85.55859375 C-16.15073595 91.79342012 -42.28763549 107.90173289 -58.1640625 131.171875 C-60.191914 134.40732346 -62.1229931 137.67501634 -64 141 C-64.47308594 141.83273438 -64.94617188 142.66546875 -65.43359375 143.5234375 C-74.1699773 159.90755868 -76.28658043 176.64608399 -76.4140625 194.91796875 C-76.43280788 196.6286153 -76.45238371 198.33925293 -76.4727478 200.04988098 C-76.52371943 204.51639508 -76.56353051 208.98293905 -76.60089111 213.44958496 C-76.64115206 218.02180149 -76.69214274 222.59389757 -76.7421875 227.16601562 C-76.83853178 236.11059203 -76.92306713 245.05523702 -77 254 C-77.45681152 253.38358643 -77.91362305 252.76717285 -78.38427734 252.13208008 C-79.48781659 250.6758685 -80.6474996 249.2609762 -81.8515625 247.88671875 C-84.89712299 243.79459293 -87.07022125 239.35304067 -89.375 234.8125 C-93.31352826 227.13523731 -97.33681342 219.51827742 -101.48950195 211.95458984 C-112.32318455 192.16755848 -120.58187264 174.27434251 -120.44604492 151.31689453 C-120.43753305 149.13347879 -120.46642464 146.95269112 -120.49804688 144.76953125 C-120.62862638 118.41027793 -108.01602758 94.45059423 -90.3828125 75.3828125 C-84.97699708 69.97699708 -78.8674014 65.4384315 -72.82421875 60.78125 C-60.15453286 51.00717894 -48.07231158 40.74722916 -36.21875 30 C-33.40765194 27.46605246 -30.55466615 24.98252983 -27.69140625 22.5078125 C-25.96919436 21.01648381 -25.96919436 21.01648381 -24.40234375 19.3046875 C-23 18 -23 18 -21 18 C-21 17.34 -21 16.68 -21 16 C-19.56640625 14.58984375 -19.56640625 14.58984375 -17.5625 12.9375 C-13.4310863 9.45918722 -9.75016202 5.67868174 -6.078125 1.72265625 C-4 0 -4 0 0 0 Z " fill="#05A19B" transform="translate(128,0)"/>
<path d="M0 0 C0.66 0 1.32 0 2 0 C3.01783088 3.99568291 4.01443218 7.99623847 5 12 C5.35457275 13.43061768 5.35457275 13.43061768 5.71630859 14.89013672 C9.52828491 30.95152271 10.51302195 46.54965189 10.5625 63 C10.57098969 63.94237518 10.57947937 64.88475037 10.58822632 65.85568237 C10.78802074 97.02530855 2.26486172 126.82563398 -18 151 C-18.71800781 151.86882812 -19.43601563 152.73765625 -20.17578125 153.6328125 C-40.45708617 177.19226795 -71.00219517 191.72087232 -101.47607422 195.66455078 C-104.11563048 196.01536818 -106.74659528 196.40715096 -109.37890625 196.80859375 C-111.1900481 197.08110203 -113.00124483 197.35324589 -114.8125 197.625 C-116.02824707 197.81002075 -116.02824707 197.81002075 -117.26855469 197.9987793 C-132.2875608 200.1716331 -147.23690062 200.12583433 -162.375 200.0625 C-164.4791656 200.05747309 -166.58333236 200.0529123 -168.6875 200.04882812 C-173.79169601 200.03792117 -178.89583479 200.02072272 -184 200 C-181.5026798 197.40147939 -179.04242823 195.19422031 -176.05078125 193.1875 C-175.29385986 192.67574219 -174.53693848 192.16398438 -173.75708008 191.63671875 C-172.95036865 191.09660156 -172.14365723 190.55648437 -171.3125 190 C-169.59318692 188.83416329 -167.87444819 187.66747919 -166.15625 186.5 C-164.85880859 185.62021484 -164.85880859 185.62021484 -163.53515625 184.72265625 C-146.0873291 172.86673672 -129.92422665 159.81644986 -114 146 C-113.26523438 145.36707031 -112.53046875 144.73414063 -111.7734375 144.08203125 C-101.49784425 135.18074574 -91.66290869 125.84956468 -82.0534668 116.23876953 C-80.30861192 114.49611683 -78.55586257 112.76166837 -76.80273438 111.02734375 C-70.85808316 105.11212617 -65.25976391 99.11514238 -60.03930664 92.53613281 C-58.06118893 90.07609608 -56.00168947 87.72978001 -53.8828125 85.390625 C-49.96156788 81.0216258 -46.38133112 76.45602819 -42.875 71.75 C-42.2353833 70.89301514 -41.5957666 70.03603027 -40.93676758 69.15307617 C-27.65789018 51.19290924 -15.91523794 32.39991808 -5.4375 12.6875 C-5.00727539 11.88038574 -4.57705078 11.07327148 -4.13378906 10.24169922 C-3.73772461 9.48518066 -3.34166016 8.72866211 -2.93359375 7.94921875 C-2.58353271 7.28237061 -2.23347168 6.61552246 -1.87280273 5.9284668 C-0.98619041 3.96948757 -0.45368829 2.09783364 0 0 Z " fill="#07C082" transform="translate(238,55)"/>
<path d="M0 0 C0.33 0 0.66 0 1 0 C1 25.41 1 50.82 1 77 C45.16366779 77.57903935 45.16366779 77.57903935 88.76171875 71.8046875 C91.89569696 71.15947675 94.78481842 70.80355306 98 71 C95.27773431 72.46901353 92.82571906 73.38849836 89.796875 74 C88.97960937 74.165 88.16234375 74.33 87.3203125 74.5 C86.47210938 74.665 85.62390625 74.83 84.75 75 C83.94820313 75.165 83.14640625 75.33 82.3203125 75.5 C79.55362501 76.04819814 76.78129536 76.53149062 74 77 C72.95457031 77.18675293 71.90914063 77.37350586 70.83203125 77.56591797 C57.15341876 79.66189429 43.35318416 79.22926221 29.5512085 79.1373291 C26.09796628 79.11657286 22.64469336 79.10767288 19.19140625 79.09765625 C12.46085948 79.07580115 5.73044655 79.04248192 -1 79 C-4.22265625 73.7265625 -4.22265625 73.7265625 -5 72 C-4.505 71.01 -4.505 71.01 -4 70 C-3.01 71.65 -2.02 73.3 -1 75 C-0.67 50.25 -0.34 25.5 0 0 Z " fill="#4AD59E" transform="translate(51,177)"/>
<path d="M0 0 C0.495 1.485 0.495 1.485 1 3 C-11.89578569 14.57530219 -11.89578569 14.57530219 -15.4375 15.9375 C-21.40674032 18.41255086 -25.25149115 23.3382644 -29.33203125 28.1484375 C-31 30 -31 30 -33.75 32.1875 C-36.25014812 34.2015082 -37.37464997 36.26645677 -39 39 C-40.485 39.495 -40.485 39.495 -42 40 C-40.57435033 35.58612419 -38.18947899 32.57758581 -35.0625 29.25 C-34.57015869 28.72196777 -34.07781738 28.19393555 -33.57055664 27.64990234 C-29.28141624 23.1385444 -24.68635233 19.15496924 -19.75488281 15.35302734 C-17.59700438 13.68928747 -15.45120005 12.01040776 -13.3046875 10.33203125 C-8.87889627 6.87621112 -4.44261167 3.43416157 0 0 Z " fill="#50B0AF" transform="translate(69,50)"/>
<path d="M0 0 C0.33 0 0.66 0 1 0 C1 25.41 1 50.82 1 77 C2.32 77.66 3.64 78.32 5 79 C3.02 79 1.04 79 -1 79 C-4.22265625 73.7265625 -4.22265625 73.7265625 -5 72 C-4.505 71.01 -4.505 71.01 -4 70 C-3.01 71.65 -2.02 73.3 -1 75 C-0.67 50.25 -0.34 25.5 0 0 Z " fill="#7CD998" transform="translate(51,177)"/>
<path d="M0 0 C0.66 0.33 1.32 0.66 2 1 C-0.5926273 5.22502227 -2.99996085 8.09088062 -7 11 C-11.67764823 14.41316202 -16.02539698 17.77698429 -20 22 C-20.99 21.67 -21.98 21.34 -23 21 C-17.60317749 16.12295343 -12.19488698 11.26447435 -6.69140625 6.5078125 C-4.96919436 5.01648381 -4.96919436 5.01648381 -3.40234375 3.3046875 C-2 2 -2 2 0 2 C0 1.34 0 0.68 0 0 Z " fill="#4BADAD" transform="translate(107,16)"/>
<path d="M0 0 C0.33 0.99 0.66 1.98 1 3 C-1.98721718 5.68133655 -4.99008034 8.34418853 -8 11 C-8.94875 11.845625 -9.8975 12.69125 -10.875 13.5625 C-11.57625 14.036875 -12.2775 14.51125 -13 15 C-13.99 14.67 -14.98 14.34 -16 14 C-15.34 13.67 -14.68 13.34 -14 13 C-13.67 12.01 -13.34 11.02 -13 10 C-10.844706 8.1824546 -8.7001991 6.48389312 -6.4375 4.8125 C-5.82197266 4.34908203 -5.20644531 3.88566406 -4.57226562 3.40820312 C-3.05294435 2.26576775 -1.52708373 1.13203843 0 0 Z " fill="#35A7A9" transform="translate(69,50)"/>
<path d="M0 0 C0.33 0 0.66 0 1 0 C1 3.96 1 7.92 1 12 C2.32 12.66 3.64 13.32 5 14 C3.02 14 1.04 14 -1 14 C-4.22265625 8.7265625 -4.22265625 8.7265625 -5 7 C-4.67 6.34 -4.34 5.68 -4 5 C-3.01 6.65 -2.02 8.3 -1 10 C-0.67 6.7 -0.34 3.4 0 0 Z " fill="#70D2AD" transform="translate(51,242)"/>
<path d="M0 0 C0.99 0.66 1.98 1.32 3 2 C1.73461631 2.84158536 0.46246221 3.67299748 -0.8125 4.5 C-1.87404297 5.19609375 -1.87404297 5.19609375 -2.95703125 5.90625 C-5 7 -5 7 -8 7 C-8 6.01 -8 5.02 -8 4 C-5.36 2.68 -2.72 1.36 0 0 Z " fill="#A0E672" transform="translate(60,247)"/>
<path d="M0 0 C-1.45255699 3.82946843 -3.42895561 5.12050295 -7 7 C-3.86206897 0 -3.86206897 0 0 0 Z " fill="#9EE67A" transform="translate(117,206)"/>
<path d="M0 0 C0.66 0 1.32 0 2 0 C2.33 2.31 2.66 4.62 3 7 C1.68 6.67 0.36 6.34 -1 6 C-0.67 4.02 -0.34 2.04 0 0 Z " fill="#33C393" transform="translate(238,55)"/>
</svg>
